<svg width="136" height="79" viewBox="0 0 136 79" fill="none" xmlns="http://www.w3.org/2000/svg">
<path d="M45.0471 73.7649L52.341 64.4344H50.3793L45.0471 73.7649Z" fill="white"/>
<path d="M129.72 16.9632L101.971 24.1034L104.593 4.40977C105.146 -0.504741 98.9931 -1.46628 95.801 2.30864L69.0866 33.0065L67.981 34.2708L66.483 32.5614L40.161 2.32645C36.951 -1.44847 30.7985 -0.486935 31.3691 4.42758L33.9906 24.1213L6.24198 16.9632C1.65881 15.8236 -1.81869 19.7587 1.03464 23.5158L41.2131 76.3469C42.8895 78.5548 43.371 78.6083 44.227 77.7536L49.1311 71.8953L49.1668 71.8419L66.8753 50.4032L67.981 49.0678L69.0866 50.4032L86.7951 71.8419L86.8308 71.8953L91.7349 77.7536C92.5909 78.6261 93.0725 78.5727 94.7488 76.3647L134.927 23.5336C137.781 19.7765 134.303 15.8414 129.72 16.981V16.9632Z" fill="black"/>
<path d="M130.736 19.4916L99.1177 27.4866L101.846 4.87269C102.06 3.09207 99.831 2.13053 98.6719 3.50161L67.9807 40.0043L37.2717 3.48381C36.1125 2.11273 33.8834 3.07426 34.0974 4.85488L36.8259 27.4688L5.22521 19.4916C3.49537 19.0642 2.19354 21.0407 3.28137 22.4474L16.0679 39.1318L42.2294 73.5691C42.9784 74.5662 44.4764 74.5662 45.2432 73.5869L67.9985 44.4025L90.7539 73.5869C91.5207 74.5662 93.0009 74.5662 93.7677 73.5691L119.929 39.1318L132.716 22.4474C133.804 21.0407 132.484 19.0642 130.772 19.4916H130.736ZM6.00987 21.8954L37.236 30.1041L42.9249 70.3817L6.00987 21.8954ZM45.582 69.0819L36.8437 7.02724L66.2509 42.1945L45.5999 69.0819H45.582ZM90.3615 69.0819L69.7105 42.1945L99.1177 7.02724L90.3615 69.0819ZM93.0365 70.3639L98.7254 30.0863L129.952 21.8776L93.0365 70.3639Z" fill="white"/>
<path d="M66.2511 42.2123L67.9809 39.9866L37.3254 3.43041C36.0949 1.9525 33.7053 3.00307 33.9549 4.90833L36.8261 27.3264L5.24327 19.3492C3.51344 18.9218 2.21161 21.0764 3.29944 22.4831L14.5166 37.1198L22.3454 47.394L24.0931 45.5955L6.04577 21.9311L40.2323 30.9054L36.8796 7.08069L66.2511 42.2123Z" fill="#6DBD45"/>
<path d="M99.118 27.4865L100.277 17.9067H97.5843L90.3618 69.0818L84.459 61.3895L82.5151 63.0277L90.7898 73.6936C91.5745 74.6908 93.0725 74.6908 93.8393 73.6936L132.894 22.4473C133.929 21.094 132.698 19.0285 131.04 19.4559L99.118 27.5043V27.4865ZM98.9931 30.2464L129.791 22.109L93.2151 70.0611L98.9931 30.2464Z" fill="#ED2D32"/>
</svg>
