<?xml version="1.0" encoding="UTF-8"?>
<svg id="Layer_1" xmlns="http://www.w3.org/2000/svg" version="1.1" xmlns:xlink="http://www.w3.org/1999/xlink" viewBox="0 0 2052 451">
  <!-- Generator: Adobe Illustrator 29.2.1, SVG Export Plug-In . SVG Version: 2.1.0 Build 116)  -->
  <defs>
    <style>
      .st0 {
        mask: url(#mask-1);
      }

      .st1 {
        fill: #fff;
      }

      .st2 {
        mask: url(#mask);
      }

      .st3 {
        fill: #ed2d32;
      }

      .st4 {
        mask: url(#mask-2);
      }

      .st5 {
        fill: #6dbd45;
      }
    </style>
    <mask id="mask" x="793.3" y="124" width="630.7" height="320" maskUnits="userSpaceOnUse">
      <g id="mask20_111_2579">
        <path class="st1" d="M1424,124h-630.7v320h630.7V124Z"/>
      </g>
    </mask>
    <mask id="mask-1" x="1489.3" y="191.7" width="562.2" height="258.8" maskUnits="userSpaceOnUse">
      <g id="mask21_111_2579">
        <path class="st1" d="M1489.3,191.7h562.2v258.8h-562.2V191.7Z"/>
      </g>
    </mask>
    <mask id="mask-2" x="1489.3" y="191.7" width="562.7" height="260" maskUnits="userSpaceOnUse">
      <g id="mask22_111_2579">
        <path class="st1" d="M2052,191.7h-562.7v260h562.7V191.7Z"/>
      </g>
    </mask>
  </defs>
  <g class="st2">
    <g>
      <path d="M1007.4,202.6h39.2l-45.3,183.6h-49.8l-29.3-130.4-29.3,130.4h-49.8l-45.4-183.6h41.7l31.3,133.4,29.6-133.4h46.3l29.6,133.4,31.3-133.4Z"/>
      <path d="M1065.1,386.3v-183.6h123.5v33.3h-85.3v41.7h80.4v33.3h-80.4v42.2h85.3l-.3,33.3h-123.3Z"/>
      <path d="M1368.6,202.6h37v183.6h-38.2v-118.3l-55.5,71.5h-4.9l-55.5-74.2v121h-38.2v-183.6h37l58.9,77.6,59.4-77.6Z"/>
    </g>
  </g>
  <g class="st0">
    <g class="st4">
      <g>
        <path d="M1520.3,385.9h-13.5v-178.8h13.5v178.8Z"/>
        <path d="M1574,222.9l12.3-1.3v38.1h42.9v10.5h-42.9v76.9c0,5.8.6,10.9,1.7,15.2,1.1,4.3,3.4,7.7,6.8,10.2,3.4,2.5,8.3,3.7,14.8,3.7s6.3-.5,9.6-1.4c3.3-.9,6.6-2.2,9.8-3.7l4.4,10.2c-3.9,1.9-7.9,3.4-11.9,4.6-4,1.2-8,1.8-11.9,1.8-13.5,0-22.8-3.7-27.9-11-5.1-7.3-7.6-17.2-7.6-29.6v-76.9h-26.8v-10.5h26.8v-36.8Z"/>
        <path d="M1766.8,259.7h12.5v126.2h-12.5v-26.8c-6.1,9.9-13.7,17.2-22.8,21.9-9,4.7-18.7,7-28.9,7s-22.5-2.8-32.2-8.3c-9.7-5.5-17.5-13.2-23.3-23-5.8-9.8-8.7-21.1-8.7-33.9s2.9-24.2,8.7-33.9c5.8-9.6,13.5-17.2,23.3-22.6,9.7-5.5,20.4-8.2,32.2-8.2s20.1,2.4,29.5,7.2c9.5,4.8,16.8,12.1,22.1,22v-27.6ZM1715.2,270.2c-9.5,0-18.2,2.2-26.1,6.5-7.8,4.3-14.1,10.5-18.7,18.4-4.6,7.9-6.9,17.2-6.9,27.7s2.3,19.8,6.9,27.7c4.6,7.9,10.8,14.1,18.7,18.5,7.8,4.4,16.5,6.6,26.1,6.6s21.5-2.5,29.3-7.6c7.8-5.1,13.6-11.7,17.5-19.7,3.9-8,5.9-16.5,5.9-25.4s-2-17.4-5.9-25.4c-3.9-8-9.8-14.6-17.5-19.7-7.7-5.1-17.5-7.7-29.3-7.7Z"/>
        <path d="M1813.3,207.1h12.5v178.8h-12.5v-178.8Z"/>
        <path d="M1873.3,259.2h-12.5v126.7h12.5v-126.7ZM1857.2,218.6c0-3.4,1-5.9,3.1-7.5,2-1.6,4.4-2.4,7-2.4s5,.8,7,2.4c2.1,1.6,3.1,4.1,3.1,7.5s-1,5.7-3.1,7.4c-2,1.7-4.4,2.5-7,2.5s-5-.8-7-2.5c-2-1.7-3.1-4.2-3.1-7.4Z"/>
        <path d="M2017.9,259.7h12.5v126.2h-12.5v-26.8c-6.1,9.9-13.7,17.2-22.8,21.9-9,4.7-18.7,7-28.9,7s-22.5-2.8-32.2-8.3c-9.7-5.5-17.5-13.2-23.3-23-5.8-9.8-8.7-21.1-8.7-33.9s2.9-24.2,8.7-33.9c5.8-9.6,13.5-17.2,23.3-22.6,9.7-5.5,20.4-8.2,32.2-8.2s20.1,2.4,29.5,7.2c9.5,4.8,16.8,12.1,22.1,22v-27.6ZM1966.3,270.2c-9.5,0-18.2,2.2-26.1,6.5-7.8,4.3-14.1,10.5-18.6,18.4-4.6,7.9-6.9,17.2-6.9,27.7s2.3,19.8,6.9,27.7c4.6,7.9,10.8,14.1,18.6,18.5,7.8,4.4,16.5,6.6,26.1,6.6s21.5-2.5,29.3-7.6c7.8-5.1,13.6-11.7,17.5-19.7,3.9-8,5.9-16.5,5.9-25.4s-2-17.4-5.9-25.4c-3.9-8-9.8-14.6-17.5-19.7-7.7-5.1-17.5-7.7-29.3-7.7Z"/>
      </g>
    </g>
  </g>
  <polygon class="st1" points="264.3 421.1 305.2 368.7 294.2 368.7 264.3 421.1"/>
  <path d="M739.1,102.1l-155.6,40.1,14.7-110.6c3.1-27.6-31.4-33-49.3-11.8l-149.8,172.4h0l-6.2,7.1-8.4-9.6L236.9,19.9c-18-21.2-52.5-15.8-49.3,11.8l14.7,110.6L46.7,102.1c-25.7-6.4-45.2,15.7-29.2,36.8l225.3,296.7c9.4,12.4,12.1,12.7,16.9,7.9h0s27.5-32.9,27.5-32.9l.2-.3,99.3-120.4h0l6.2-7.5,6.2,7.5h0l99.3,120.4.2.3,27.5,32.9h0c4.8,4.9,7.5,4.6,16.9-7.8l225.3-296.7c16-21.1-3.5-43.2-29.2-36.8Z"/>
  <path class="st1" d="M744.8,116.3l-177.3,44.9,15.3-127c1.2-10-11.3-15.4-17.8-7.7l-172.1,205L220.7,26.4c-6.5-7.7-19-2.3-17.8,7.7l15.3,127L41,116.3c-9.7-2.4-17,8.7-10.9,16.6l71.7,93.7,146.7,193.4c4.2,5.6,12.6,5.6,16.9.1l127.6-163.9,127.6,163.9c4.3,5.5,12.6,5.5,16.9-.1l146.7-193.4,71.7-93.7c6.1-7.9-1.3-19-10.9-16.6ZM45.4,129.8l175.1,46.1,31.9,226.2L45.4,129.8ZM267.3,394.8L218.3,46.3l164.9,197.5-115.8,151ZM518.4,394.8l-115.8-151,164.9-197.5-49.1,348.5ZM533.4,402l31.9-226.2,175.1-46.1-207,272.3Z"/>
  <path class="st5" d="M383.2,243.9l9.7-12.5L221,26.1c-6.9-8.3-20.3-2.4-18.9,8.3l16.1,125.9L41.1,115.5c-9.7-2.4-17,9.7-10.9,17.6l62.9,82.2,43.9,57.7,9.8-10.1L45.6,130l191.7,50.4-18.8-133.8,164.7,197.3Z"/>
  <path class="st3" d="M567.5,161.2l6.5-53.8h-15.1l-40.5,287.4-33.1-43.2-10.9,9.2,46.4,59.9c4.4,5.6,12.8,5.6,17.1,0l219-287.8c5.8-7.6-1.1-19.2-10.4-16.8l-179,45.2ZM566.8,176.7l172.7-45.7-205.1,269.3,32.4-223.6Z"/>
</svg>