<svg width="364" height="79" viewBox="0 0 364 79" fill="none" xmlns="http://www.w3.org/2000/svg">
<mask id="mask0_364_2" style="mask-type:luminance" maskUnits="userSpaceOnUse" x="139" y="20" width="113" height="58">
<path d="M251.86 20.8627H139.385V77.8426H251.86V20.8627Z" fill="white"/>
</mask>
<g mask="url(#mask0_364_2)">
<path d="M177.567 34.8583H184.557L176.479 67.5505H167.598L162.373 44.3312L157.148 67.5505H148.267L140.17 34.8583H147.607L153.189 58.6118L158.467 34.8583H166.724L172.003 58.6118L177.585 34.8583H177.567Z" fill="white"/>
<path d="M187.856 67.5683V34.8761H209.88V40.8056H194.669V48.2308H209.007V54.1602H194.669V61.6744H209.88L209.827 67.6039H187.838L187.856 67.5683Z" fill="white"/>
<path d="M241.981 34.8583H248.579V67.5505H241.767V46.4857L231.869 59.2172H230.995L221.098 46.005V67.5505H214.286V34.8583H220.884L231.388 48.6759L241.981 34.8583Z" fill="white"/>
</g>
<mask id="mask1_364_2" style="mask-type:luminance" maskUnits="userSpaceOnUse" x="263" y="32" width="101" height="47">
<path d="M263.505 32.9175H363.764V79H263.505V32.9175Z" fill="white"/>
</mask>
<g mask="url(#mask1_364_2)">
<mask id="mask2_364_2" style="mask-type:luminance" maskUnits="userSpaceOnUse" x="263" y="32" width="101" height="48">
<path d="M363.854 32.9175H263.505V79.2136H363.854V32.9175Z" fill="white"/>
</mask>
<g mask="url(#mask2_364_2)">
<path d="M269.034 67.4972H266.626V35.6597H269.034V67.4972Z" fill="white"/>
<path d="M278.61 38.4729L280.804 38.2415V45.0256H288.454V46.8953H280.804V60.5883C280.804 61.621 280.911 62.5291 281.107 63.2948C281.303 64.0605 281.713 64.6659 282.32 65.111C282.926 65.5562 283.8 65.7699 284.959 65.7699C286.118 65.7699 286.082 65.6808 286.671 65.5206C287.259 65.3603 287.848 65.1288 288.419 64.8617L289.203 66.678C288.508 67.0163 287.794 67.2834 287.081 67.4971C286.368 67.7107 285.654 67.8176 284.959 67.8176C282.551 67.8176 280.893 67.1587 279.983 65.8589C279.074 64.559 278.628 62.7962 278.628 60.5883V46.8953H273.849V45.0256H278.628V38.4729H278.61Z" fill="white"/>
<path d="M312.993 45.0256H315.222V67.4971H312.993V62.725C311.905 64.4878 310.55 65.7877 308.927 66.6246C307.322 67.4614 305.592 67.871 303.773 67.871C301.954 67.871 299.76 67.3724 298.031 66.3931C296.301 65.4137 294.91 64.0427 293.875 62.2976C292.841 60.5526 292.324 58.5405 292.324 56.2613C292.324 53.9821 292.841 51.9522 293.875 50.225C294.91 48.5156 296.283 47.1624 298.031 46.2008C299.76 45.2215 301.669 44.7407 303.773 44.7407C305.877 44.7407 307.357 45.1681 309.034 46.0228C310.728 46.8775 312.03 48.1773 312.975 49.9401V45.0256H312.993ZM303.791 46.8953C302.097 46.8953 300.545 47.287 299.136 48.0527C297.745 48.8183 296.622 49.9223 295.801 51.329C294.981 52.7357 294.571 54.3917 294.571 56.2613C294.571 58.131 294.981 59.787 295.801 61.1937C296.622 62.6004 297.727 63.7043 299.136 64.4878C300.527 65.2713 302.079 65.663 303.791 65.663C305.503 65.663 307.625 65.2179 309.016 64.3097C310.407 63.4016 311.441 62.2264 312.137 60.8019C312.832 59.3774 313.189 57.8639 313.189 56.2791C313.189 54.6944 312.832 53.1809 312.137 51.7564C311.441 50.3319 310.389 49.1567 309.016 48.2485C307.643 47.3404 305.895 46.8775 303.791 46.8775V46.8953Z" fill="white"/>
<path d="M321.285 35.6597H323.514V67.4972H321.285V35.6597Z" fill="white"/>
<path d="M331.985 44.9366H329.756V67.4971H331.985V44.9366ZM329.114 37.7073C329.114 37.1019 329.292 36.6567 329.667 36.3718C330.024 36.0869 330.452 35.9445 330.915 35.9445C331.379 35.9445 331.807 36.0869 332.164 36.3718C332.538 36.6567 332.716 37.1019 332.716 37.7073C332.716 38.3127 332.538 38.7222 332.164 39.0249C331.807 39.3276 331.379 39.4701 330.915 39.4701C330.452 39.4701 330.024 39.3276 329.667 39.0249C329.31 38.7222 329.114 38.2771 329.114 37.7073Z" fill="white"/>
<path d="M357.772 45.0256H360.002V67.4971H357.772V62.725C356.685 64.4878 355.329 65.7877 353.706 66.6246C352.101 67.4614 350.372 67.871 348.553 67.871C346.734 67.871 344.54 67.3724 342.81 66.3931C341.08 65.4137 339.689 64.0427 338.655 62.2976C337.621 60.5526 337.104 58.5405 337.104 56.2613C337.104 53.9821 337.621 51.9522 338.655 50.225C339.689 48.5156 341.063 47.1624 342.81 46.2008C344.54 45.2215 346.448 44.7407 348.553 44.7407C350.657 44.7407 352.137 45.1681 353.813 46.0228C355.508 46.8775 356.809 48.1773 357.755 49.9401V45.0256H357.772ZM348.57 46.8953C346.876 46.8953 345.325 47.287 343.916 48.0527C342.525 48.8183 341.401 49.9223 340.599 51.329C339.779 52.7357 339.368 54.3917 339.368 56.2613C339.368 58.131 339.779 59.787 340.599 61.1937C341.419 62.6004 342.525 63.7043 343.916 64.4878C345.307 65.2713 346.858 65.663 348.57 65.663C350.282 65.663 352.405 65.2179 353.796 64.3097C355.187 63.4016 356.221 62.2264 356.916 60.8019C357.612 59.3774 357.969 57.8639 357.969 56.2791C357.969 54.6944 357.612 53.1809 356.916 51.7564C356.221 50.3319 355.169 49.1567 353.796 48.2485C352.422 47.3404 350.675 46.8775 348.57 46.8775V46.8953Z" fill="white"/>
</g>
</g>
<path d="M45.0471 73.7649L52.341 64.4344H50.3793L45.0471 73.7649Z" fill="white"/>
<path d="M129.72 16.9632L101.971 24.1034L104.593 4.40977C105.146 -0.504741 98.9931 -1.46628 95.801 2.30864L69.0866 33.0065L67.981 34.2708L66.483 32.5614L40.161 2.32645C36.951 -1.44847 30.7985 -0.486935 31.3691 4.42758L33.9906 24.1213L6.24198 16.9632C1.65881 15.8236 -1.81869 19.7587 1.03464 23.5158L41.2131 76.3469C42.8895 78.5548 43.371 78.6083 44.227 77.7536L49.1311 71.8953L49.1668 71.8419L66.8753 50.4032L67.981 49.0678L69.0866 50.4032L86.7951 71.8419L86.8308 71.8953L91.7349 77.7536C92.5909 78.6261 93.0725 78.5727 94.7488 76.3647L134.927 23.5336C137.781 19.7765 134.303 15.8414 129.72 16.981V16.9632Z" fill="black"/>
<path d="M130.736 19.4916L99.1177 27.4866L101.846 4.87269C102.06 3.09207 99.831 2.13053 98.6719 3.50161L67.9807 40.0043L37.2717 3.48381C36.1125 2.11273 33.8834 3.07426 34.0974 4.85488L36.8259 27.4688L5.22521 19.4916C3.49537 19.0642 2.19354 21.0407 3.28137 22.4474L16.0679 39.1318L42.2294 73.5691C42.9784 74.5662 44.4764 74.5662 45.2432 73.5869L67.9985 44.4025L90.7539 73.5869C91.5207 74.5662 93.0009 74.5662 93.7677 73.5691L119.929 39.1318L132.716 22.4474C133.804 21.0407 132.484 19.0642 130.772 19.4916H130.736ZM6.00987 21.8954L37.236 30.1041L42.9249 70.3817L6.00987 21.8954ZM45.582 69.0819L36.8437 7.02724L66.2509 42.1945L45.5999 69.0819H45.582ZM90.3615 69.0819L69.7105 42.1945L99.1177 7.02724L90.3615 69.0819ZM93.0365 70.3639L98.7254 30.0863L129.952 21.8776L93.0365 70.3639Z" fill="white"/>
<path d="M66.2511 42.2123L67.9809 39.9866L37.3254 3.43041C36.0949 1.9525 33.7053 3.00307 33.9549 4.90833L36.8261 27.3264L5.24327 19.3492C3.51344 18.9218 2.21161 21.0764 3.29944 22.4831L14.5166 37.1198L22.3454 47.394L24.0931 45.5955L6.04577 21.9311L40.2323 30.9054L36.8796 7.08069L66.2511 42.2123Z" fill="#6DBD45"/>
<path d="M99.118 27.4865L100.277 17.9067H97.5843L90.3618 69.0818L84.459 61.3895L82.5151 63.0277L90.7898 73.6936C91.5745 74.6908 93.0725 74.6908 93.8393 73.6936L132.894 22.4473C133.929 21.094 132.698 19.0285 131.04 19.4559L99.118 27.5043V27.4865ZM98.9931 30.2464L129.791 22.109L93.2151 70.0611L98.9931 30.2464Z" fill="#ED2D32"/>
</svg>
